<svg width="32" height="32" viewBox="0 0 32 32" fill="none" xmlns="http://www.w3.org/2000/svg">
<path fill-rule="evenodd" clip-rule="evenodd" d="M15.315 6.35724C10.2959 6.7086 6.33331 10.8915 6.33331 16C6.33331 21.3388 10.6612 25.6667 16 25.6667C20.2771 25.6667 23.9062 22.8883 25.1797 19.0382C24.1996 19.4432 23.1255 19.6667 22 19.6667C17.3976 19.6667 13.6666 15.9357 13.6666 11.3333C13.6666 9.46782 14.2801 7.74546 15.315 6.35724ZM4.33331 16C4.33331 9.55669 9.55666 4.33334 16 4.33334C16.5995 4.33334 17.189 4.37864 17.7652 4.46617C18.1639 4.52671 18.4871 4.82072 18.5851 5.21183C18.6831 5.60293 18.5366 6.01461 18.2136 6.25593C16.6656 7.41248 15.6666 9.25612 15.6666 11.3333C15.6666 14.8311 18.5022 17.6667 22 17.6667C23.5123 17.6667 24.8984 17.1379 25.9874 16.2542C26.3003 16.0003 26.7351 15.959 27.0902 16.1495C27.4453 16.34 27.6514 16.725 27.6129 17.1261C27.0458 23.0416 22.0636 27.6667 16 27.6667C9.55666 27.6667 4.33331 22.4433 4.33331 16Z" fill="black"/>
</svg>
