<svg width="32" height="32" viewBox="0 0 32 32" fill="none" xmlns="http://www.w3.org/2000/svg">
<path d="M16 1.66666C16.5523 1.66666 17 2.11437 17 2.66666V3.99999C17 4.55227 16.5523 4.99999 16 4.99999C15.4477 4.99999 15 4.55227 15 3.99999V2.66666C15 2.11437 15.4477 1.66666 16 1.66666Z" fill="white"/>
<path fill-rule="evenodd" clip-rule="evenodd" d="M8.33334 16C8.33334 11.7658 11.7658 8.33332 16 8.33332C20.2342 8.33332 23.6667 11.7658 23.6667 16C23.6667 20.2342 20.2342 23.6667 16 23.6667C11.7658 23.6667 8.33334 20.2342 8.33334 16ZM16 10.3333C12.8704 10.3333 10.3333 12.8704 10.3333 16C10.3333 19.1296 12.8704 21.6667 16 21.6667C19.1296 21.6667 21.6667 19.1296 21.6667 16C21.6667 12.8704 19.1296 10.3333 16 10.3333Z" fill="white"/>
<path d="M7.27904 5.86482C6.88852 5.4743 6.25535 5.4743 5.86483 5.86482C5.4743 6.25535 5.4743 6.88851 5.86483 7.27904L6.80764 8.22185C7.19816 8.61237 7.83132 8.61237 8.22185 8.22185C8.61237 7.83132 8.61237 7.19816 8.22185 6.80763L7.27904 5.86482Z" fill="white"/>
<path d="M30.3333 16C30.3333 16.5523 29.8856 17 29.3333 17H28C27.4477 17 27 16.5523 27 16C27 15.4477 27.4477 15 28 15H29.3333C29.8856 15 30.3333 15.4477 30.3333 16Z" fill="white"/>
<path d="M26.1352 7.27902C26.5257 6.8885 26.5257 6.25534 26.1352 5.86481C25.7446 5.47429 25.1115 5.47429 24.721 5.86481L23.7781 6.80762C23.3876 7.19814 23.3876 7.83131 23.7781 8.22183C24.1687 8.61236 24.8018 8.61236 25.1924 8.22183L26.1352 7.27902Z" fill="white"/>
<path d="M16 27C16.5523 27 17 27.4477 17 28V29.3333C17 29.8856 16.5523 30.3333 16 30.3333C15.4477 30.3333 15 29.8856 15 29.3333V28C15 27.4477 15.4477 27 16 27Z" fill="white"/>
<path d="M25.1924 23.7782C24.8019 23.3876 24.1688 23.3876 23.7782 23.7782C23.3877 24.1687 23.3877 24.8018 23.7782 25.1924L24.721 26.1352C25.1116 26.5257 25.7447 26.5257 26.1353 26.1352C26.5258 25.7446 26.5258 25.1115 26.1353 24.721L25.1924 23.7782Z" fill="white"/>
<path d="M5 16C5 16.5523 4.55229 17 4 17H2.66667C2.11439 17 1.66667 16.5523 1.66667 16C1.66667 15.4477 2.11439 15 2.66667 15H4.00001C4.55229 15 5 15.4477 5 16Z" fill="white"/>
<path d="M8.22176 25.1924C8.61228 24.8018 8.61228 24.1687 8.22176 23.7781C7.83124 23.3876 7.19807 23.3876 6.80755 23.7781L5.86474 24.7209C5.47421 25.1115 5.47421 25.7446 5.86474 26.1352C6.25526 26.5257 6.88843 26.5257 7.27895 26.1352L8.22176 25.1924Z" fill="white"/>
</svg>
